<svg width="40" height="40" viewBox="0 0 40 40" fill="none" xmlns="http://www.w3.org/2000/svg">
<path d="M39.8871 18.92C39.8371 18.775 38.4202 15.3675 35.2862 11.9419C31.1021 7.41063 25.8178 5 20 5C14.1822 5 8.89788 7.41063 4.71375 11.9419C1.57982 15.3675 0.162884 18.775 0.112875 18.92C0.0384488 19.1027 0 19.3002 0 19.5C0 19.6998 0.0384488 19.8973 0.112875 20.08C0.162884 20.225 1.57982 23.6325 4.71375 27.0581C8.89788 31.5894 14.1822 34 20 34C25.8178 34 31.1021 31.5894 35.2862 27.0581C38.4202 23.6325 39.8371 20.225 39.8871 20.08C39.9616 19.8973 40 19.6998 40 19.5C40 19.3002 39.9616 19.1027 39.8871 18.92ZM20 12.975C21.1869 12.975 22.3472 13.3577 23.3341 14.0747C24.3209 14.7916 25.0901 15.8107 25.5443 17.003C25.9985 18.1953 26.1174 19.5072 25.8858 20.773C25.6543 22.0387 25.0827 23.2013 24.2434 24.1139C23.4042 25.0264 22.3349 25.6479 21.1708 25.8996C20.0067 26.1514 18.8 26.0222 17.7035 25.5283C16.6069 25.0345 15.6696 24.1981 15.0102 23.1251C14.3508 22.0521 13.9989 20.7905 13.9989 19.5C13.9989 17.7695 14.6311 16.1098 15.7565 14.8861C16.882 13.6625 18.4084 12.975 20 12.975Z" fill="white"/>
</svg>
