<svg width="26" height="33" viewBox="0 0 26 33" fill="none" xmlns="http://www.w3.org/2000/svg">
<path d="M4.99406 16.0981L1.65136 20.2535C1.18433 20.834 0.949689 21.5484 0.98807 22.2732C1.02645 22.998 1.33543 23.6874 1.86153 24.2222L8.17329 30.6418C8.8038 31.2841 9.69452 31.6496 10.6303 31.6496H18.3382C22.3414 31.6496 25.0102 28.5393 25.0102 25.429V12.0999C25.0102 8.54483 20.0062 8.54483 20.0062 12.0999V12.9879" stroke="white" stroke-width="0.995163" stroke-linecap="round" stroke-linejoin="round"/>
<path d="M20.0061 12.9875V10.322C20.0061 6.76695 15.0021 6.76695 15.0021 10.322V12.9875V9.09966C15.0021 5.54461 9.99805 5.54461 9.99805 9.09966V12.9875V2.87754C9.99761 2.25914 9.73381 1.6662 9.26464 1.22907C8.79547 0.79194 8.15932 0.546387 7.49604 0.546387C6.83246 0.546387 6.19606 0.792154 5.72684 1.22962C5.25762 1.66709 4.99402 2.26042 4.99402 2.8791V20.7632" stroke="white" stroke-width="0.995163" stroke-linecap="round" stroke-linejoin="round"/>
</svg>
