<svg width="12" height="12" viewBox="0 0 12 12" fill="none" xmlns="http://www.w3.org/2000/svg">
<path d="M11.506 5.33275C11.506 5.04343 11.4037 4.76596 11.2214 4.56138C11.0392 4.35681 10.7921 4.24187 10.5344 4.24187H7.46423L7.93059 1.74924C7.94031 1.69469 7.94517 1.63469 7.94517 1.5747C7.94517 1.35107 7.86258 1.1438 7.73142 0.996535L7.21648 0.423828L4.01997 4.01279C3.84023 4.2146 3.73335 4.48732 3.73335 4.78731V10.2417C3.73335 10.531 3.83572 10.8084 4.01792 11.013C4.20013 11.2176 4.44726 11.3325 4.70494 11.3325H9.07706C9.48027 11.3325 9.82518 11.0598 9.97092 10.6671L11.438 6.82178C11.4817 6.69633 11.506 6.56543 11.506 6.42362V5.33275ZM0.818604 11.3325H2.76177V4.78731H0.818604V11.3325Z" fill="white"/>
</svg>
