<svg width="24" height="24" viewBox="0 0 24 24" fill="none" xmlns="http://www.w3.org/2000/svg">
<path d="M23.0076 23.3709C22.4943 23.893 21.6527 23.893 21.1393 23.3709L15.6337 17.7713C14.5978 16.7177 12.9305 16.6737 11.5425 17.1805V17.1805C10.6895 17.4919 9.78188 17.6476 8.81955 17.6476C6.43559 17.6476 4.4182 16.8081 2.76736 15.1291C1.11565 13.4492 0.289795 11.3969 0.289795 8.97224C0.289795 6.54758 1.11565 4.4953 2.76736 2.8154C4.4182 1.13638 6.43559 0.296875 8.81955 0.296875C11.2035 0.296875 13.2213 1.13638 14.873 2.8154C16.5239 4.4953 17.3493 6.54758 17.3493 8.97224C17.3493 9.95099 17.1962 10.8741 16.89 11.7417V11.7417C16.3896 13.1596 16.433 14.8472 17.4872 15.9193L23.0076 21.534C23.5088 22.0437 23.5088 22.8611 23.0076 23.3709V23.3709ZM8.81955 14.9783C10.4599 14.9783 11.8544 14.3946 13.0031 13.2272C14.1509 12.0589 14.7248 10.6406 14.7248 8.97224C14.7248 7.3039 14.1509 5.88559 13.0031 4.7173C11.8544 3.54991 10.4599 2.96622 8.81955 2.96622C7.17921 2.96622 5.7847 3.54991 4.63603 4.7173C3.48823 5.88559 2.91433 7.3039 2.91433 8.97224C2.91433 10.6406 3.48823 12.0589 4.63603 13.2272C5.7847 14.3946 7.17921 14.9783 8.81955 14.9783Z" fill="#7D7D7D"/>
</svg>
