<svg width="20" height="17" viewBox="0 0 20 17" fill="none" xmlns="http://www.w3.org/2000/svg">
<path d="M19.6335 0.881344C19.6514 0.774128 19.6409 0.664117 19.6031 0.562196C19.5654 0.460275 19.5017 0.369976 19.4183 0.300236C19.3349 0.230495 19.2348 0.183729 19.1278 0.164565C19.0209 0.145401 18.9107 0.154504 18.8083 0.190972L1.33056 6.43303C1.21536 6.47411 1.11476 6.54814 1.04127 6.64591C0.967772 6.74368 0.924622 6.86088 0.917174 6.98297C0.909727 7.10505 0.938311 7.22663 0.999376 7.33261C1.06044 7.43859 1.1513 7.52429 1.26065 7.57907L6.2543 10.0759C6.35271 10.1252 6.4624 10.1475 6.57224 10.1407C6.68208 10.1339 6.78817 10.0982 6.87976 10.0372L11.0245 7.27321L8.54389 10.3768C8.48991 10.4443 8.45055 10.5223 8.42831 10.6059C8.40607 10.6895 8.40143 10.7767 8.4147 10.8622C8.42796 10.9476 8.45883 11.0294 8.50536 11.1023C8.55188 11.1752 8.61304 11.2376 8.68496 11.2856L16.1754 16.2793C16.2622 16.3369 16.362 16.372 16.4657 16.3812C16.5695 16.3904 16.6739 16.3736 16.7694 16.3321C16.865 16.2907 16.9487 16.226 17.0128 16.1439C17.077 16.0618 17.1195 15.965 17.1367 15.8623L19.6335 0.881344Z" fill="white"/>
</svg>
