<svg width="24" height="14" viewBox="0 0 24 14" fill="none" xmlns="http://www.w3.org/2000/svg">
<path fill-rule="evenodd" clip-rule="evenodd" d="M22.8877 1.21174C23.0492 0.680605 22.8877 0.289551 22.1143 0.289551H19.5608C18.911 0.289551 18.6114 0.627103 18.4489 0.999675C18.4489 0.999675 17.1503 4.10865 15.3108 6.12813C14.7154 6.71374 14.445 6.89954 14.1201 6.89954C13.9576 6.89954 13.7135 6.71374 13.7135 6.18163V1.21174C13.7135 0.5736 13.5345 0.289551 12.9936 0.289551H8.97801C8.57236 0.289551 8.3282 0.585273 8.3282 0.866405C8.3282 1.4705 9.24844 1.61058 9.3428 3.31098V7.00557C9.3428 7.81589 9.19397 7.96278 8.86906 7.96278C8.00329 7.96278 5.89724 4.83921 4.64723 1.26524C4.40501 0.569709 4.15987 0.289551 3.50714 0.289551H0.951667C0.222088 0.289551 0.0761719 0.627103 0.0761719 0.999675C0.0761719 1.66311 0.941939 4.95886 4.10831 9.31785C6.21923 12.2945 9.19105 13.9084 11.8983 13.9084C13.5218 13.9084 13.7222 13.5504 13.7222 12.9327V10.6826C13.7222 9.96572 13.8759 9.82272 14.3905 9.82272C14.7699 9.82272 15.4187 10.0095 16.9343 11.4443C18.6658 13.1457 18.9509 13.9084 19.9256 13.9084H22.4791C23.2087 13.9084 23.5745 13.5504 23.3643 12.8422C23.1328 12.1379 22.306 11.1155 21.2097 9.90249C20.6143 9.21182 19.7213 8.46765 19.4499 8.09508C19.0715 7.61744 19.1795 7.40441 19.4499 6.97931C19.4499 6.97931 22.5628 2.67382 22.8867 1.21174H22.8877Z" fill="white"/>
</svg>
