<svg width="11" height="9" viewBox="0 0 11 9" fill="none" xmlns="http://www.w3.org/2000/svg">
<path d="M10.8063 4.21462C10.7935 4.17496 10.43 3.24276 9.62617 2.3056C8.55295 1.06598 7.19752 0.406494 5.70528 0.406494C4.21303 0.406494 2.85761 1.06598 1.78439 2.3056C0.980538 3.24276 0.617097 4.17496 0.60427 4.21462C0.585179 4.26459 0.575317 4.31864 0.575317 4.3733C0.575317 4.42795 0.585179 4.482 0.60427 4.53197C0.617097 4.57164 0.980538 5.50383 1.78439 6.44099C2.85761 7.68062 4.21303 8.3401 5.70528 8.3401C7.19752 8.3401 8.55295 7.68062 9.62617 6.44099C10.43 5.50383 10.7935 4.57164 10.8063 4.53197C10.8254 4.482 10.8352 4.42795 10.8352 4.3733C10.8352 4.31864 10.8254 4.26459 10.8063 4.21462ZM5.70528 2.58824C6.00972 2.58824 6.30732 2.69293 6.56046 2.88907C6.81359 3.08522 7.01088 3.36401 7.12739 3.69018C7.24389 4.01636 7.27437 4.37528 7.21498 4.72154C7.15559 5.06781 7.00898 5.38588 6.79371 5.63552C6.57844 5.88517 6.30417 6.05518 6.00558 6.12406C5.70698 6.19293 5.39749 6.15758 5.11622 6.02248C4.83495 5.88737 4.59455 5.65857 4.42541 5.36502C4.25627 5.07147 4.166 4.72635 4.166 4.3733C4.166 3.89987 4.32817 3.44583 4.61684 3.11107C4.90551 2.7763 5.29703 2.58824 5.70528 2.58824Z" fill="white"/>
</svg>
